<?xml version="1.0"?>
<svg xmlns:rdf="http://www.w3.org/1999/02/22-rdf-syntax-ns#" xmlns="http://www.w3.org/2000/svg" xmlns:cc="http://creativecommons.org/ns#" xmlns:xlink="http://www.w3.org/1999/xlink" xmlns:dc="http://purl.org/dc/elements/1.1/" xmlns:svg="http://www.w3.org/2000/svg" id="svg2" viewBox="0 0 335.12 334.87" version="1.1">
  <defs id="defs4">
    <radialGradient id="radialGradient3043" gradientUnits="userSpaceOnUse" cy="396.65" cx="340.71" gradientTransform="matrix(1 0 0 1.0559 0 -22.173)" r="115">
      <stop id="stop3821" stop-color="#00d514" offset="0"/>
      <stop id="stop3823" stop-color="#00d514" stop-opacity="0" offset="1"/>
    </radialGradient>
    <linearGradient id="linearGradient3045" y2="361.95" gradientUnits="userSpaceOnUse" x2="337.14" y1="517.32" x1="338.57">
      <stop id="stop3831" stop-color="#008000" offset="0"/>
      <stop id="stop3833" stop-color="#008000" stop-opacity="0" offset="1"/>
    </linearGradient>
    <linearGradient id="linearGradient3047" y2="514.32" gradientUnits="userSpaceOnUse" x2="345.1" y1="283.98" x1="339.84">
      <stop id="stop3843" stop-color="#d5ffd5" offset="0"/>
      <stop id="stop3845" stop-color="#d5ffd5" stop-opacity="0" offset="1"/>
    </linearGradient>
  </defs>
  <g id="layer1" transform="translate(-154.49 -308.75)" display="none">
    <g id="g3790" transform="matrix(.99817 .060482 -.060482 .99817 715.23 27.291)">
      <path id="path3792" d="m222.96 606.27c-2.1889-1.57-8.3081-6.6989-9.1964-9.2419-15.632-44.747-1.1675-71.092 20.588-88.123 134.07-104.96 258.12-161.23 347.49-185.55 19.731-5.3688 40.026-6.4351 47.477 7.7643 8.9983 17.147-6.2892 32.967-24.856 52.507-62.687 65.97-129.39 63.241-286.27 220.23-22.051 22.068-45.219 38.284-95.234 2.4107z" fill="#34b188"/>
      <path id="path3794" fill="#3bbbb9" d="m250.78 496.25c-3.2226 2.4433-6.4524 4.9378-9.6875 7.4375l16.5 52.25-6.8125-59.688zm-11.094 8.5312c-1.7771 1.3769-3.563 2.731-5.3438 4.125-2.2952 1.7968-4.4876 3.7039-6.5938 5.7188l17.812 49.625-5.875-59.469zm-13.156 11.031c-5.1861 5.1779-9.6694 11.088-13 17.906l21.344 42.375-8.3438-60.281zm-14.47 21.19c-6.3363 15.198-7.1472 34.652 1.7188 60.031 0.88837 2.543 6.9986 7.6488 9.1875 9.2188 3.1824 2.2826 6.2471 4.3773 9.2188 6.25-12.98-25.159-19.968-50.341-20.125-75.5z"/>
      <path id="path3796" d="m128.06 678.95c13.894-8.6422 28.508-23.754 40.637-16.511 106.6-120.48 253.85-214.74 404.06-307.08-154.53 86.13-337.04 204.7-444.7 323.59z" fill="#a3d234"/>
      <path id="path3798" d="m467.27 420.02c-109.36 66.138-228.6 150.27-318.5 241.51 13.718-10.82 20.108-3.8156 23.469-5.0714 84.956-93.818 188.99-167.8 294.81-236.25 1.3956-0.89872 2.3606-1.4787 0.21875-0.1875z" fill="#a4bd39"/>
      <path id="path3800" fill="#19e22a" d="m631.66 337.97-31.625 1.2188 31.5 6.5625c0.50491-2.5928 0.56519-5.1761 0.125-7.7812zm-1.8125 13.375-45.969 5.0312 37.719 8.1875c3.5447-4.5084 6.4429-8.886 8.25-13.219zm-9.875 15.281-54.281 0.84375 40.219 14.625c5.1259-5.3957 9.9897-10.521 14.062-15.469zm-57.312 11.969 26.438 19.844c4.7628-4.1984 9.48-8.6809 14.156-13.531l-40.594-6.3125zm-16.17 3.03 29.28 27.29-40.4-19.22l27.844 28.781c8.4382-5.8233 16.549-11.938 24.469-18.812l-41.19-18.04zm-24.25 16.156 27.125 29.844c4.3803-2.7795 8.6532-5.567 12.844-8.4375l-39.97-21.4zm-18.188 13.125 32.844 24.438c3.5354-2.1473 7.0077-4.2696 10.406-6.4062l-43.25-18.031zm-21.219 10.125 37.375 24.344c4.6404-2.7696 9.2605-5.5348 13.656-8.1875l-51.031-16.156z"/>
    </g>
    <g id="g3771" transform="matrix(.99340 -.11474 .11474 .99340 596.4 53.649)">
      <path id="path2987" d="m222.96 606.27c-2.1889-1.57-8.3081-6.6989-9.1964-9.2419-15.632-44.747-1.1675-71.092 20.588-88.123 134.07-104.96 258.12-161.23 347.49-185.55 19.731-5.3688 40.026-6.4351 47.477 7.7643 8.9983 17.147-6.2892 32.967-24.856 52.507-62.687 65.97-129.39 63.241-286.27 220.23-22.051 22.068-45.219 38.284-95.234 2.4107z" fill="#699f44"/>
      <path id="path3761" fill="#5cdd1d" d="m250.78 496.25c-3.2226 2.4433-6.4524 4.9378-9.6875 7.4375l16.5 52.25-6.8125-59.688zm-11.094 8.5312c-1.7771 1.3769-3.563 2.731-5.3438 4.125-2.2952 1.7968-4.4876 3.7039-6.5938 5.7188l17.812 49.625-5.875-59.469zm-13.156 11.031c-5.1861 5.1779-9.6694 11.088-13 17.906l21.344 42.375-8.3438-60.281zm-14.47 21.19c-6.3363 15.198-7.1472 34.652 1.7188 60.031 0.88837 2.543 6.9986 7.6488 9.1875 9.2188 3.1824 2.2826 6.2471 4.3773 9.2188 6.25-12.98-25.159-19.968-50.341-20.125-75.5z"/>
      <path id="path2985" d="m128.06 678.95c13.894-8.6422 28.508-23.754 40.637-16.511 106.6-120.48 253.85-214.74 404.06-307.08-154.53 86.13-337.04 204.7-444.7 323.59z" fill="#4e8f13"/>
      <path id="path3757" d="m467.27 420.02c-109.36 66.138-228.6 150.27-318.5 241.51 13.718-10.82 20.108-3.8156 23.469-5.0714 84.956-93.818 188.99-167.8 294.81-236.25 1.3956-0.89872 2.3606-1.4787 0.21875-0.1875z" fill="#7baa1e"/>
      <path id="path3766" fill="#c6ac2e" d="m631.66 337.97-31.625 1.2188 31.5 6.5625c0.50491-2.5928 0.56519-5.1761 0.125-7.7812zm-1.8125 13.375-45.969 5.0312 37.719 8.1875c3.5447-4.5084 6.4429-8.886 8.25-13.219zm-9.875 15.281-54.281 0.84375 40.219 14.625c5.1259-5.3957 9.9897-10.521 14.062-15.469zm-57.312 11.969 26.438 19.844c4.7628-4.1984 9.48-8.6809 14.156-13.531l-40.594-6.3125zm-16.17 3.03 29.28 27.29-40.4-19.22l27.844 28.781c8.4382-5.8233 16.549-11.938 24.469-18.812l-41.19-18.04zm-24.25 16.156 27.125 29.844c4.3803-2.7795 8.6532-5.567 12.844-8.4375l-39.97-21.4zm-18.188 13.125 32.844 24.438c3.5354-2.1473 7.0077-4.2696 10.406-6.4062l-43.25-18.031zm-21.219 10.125 37.375 24.344c4.6404-2.7696 9.2605-5.5348 13.656-8.1875l-51.031-16.156z"/>
    </g>
    <g id="g3802" transform="matrix(.98090 -.19449 .19449 .98090 505.06 49.527)">
      <path id="path3804" fill="#99c648" d="m222.96 606.27c-2.1889-1.57-8.3081-6.6989-9.1964-9.2419-15.632-44.747-1.1675-71.092 20.588-88.123 134.07-104.96 258.12-161.23 347.49-185.55 19.731-5.3688 40.026-6.4351 47.477 7.7643 8.9983 17.147-6.2892 32.967-24.856 52.507-62.687 65.97-129.39 63.241-286.27 220.23-22.051 22.068-45.219 38.284-95.234 2.4107z"/>
      <path id="path3806" fill="#6da419" d="m250.78 496.25c-3.2226 2.4433-6.4524 4.9378-9.6875 7.4375l16.5 52.25-6.8125-59.688zm-11.094 8.5312c-1.7771 1.3769-3.563 2.731-5.3438 4.125-2.2952 1.7968-4.4876 3.7039-6.5938 5.7188l17.812 49.625-5.875-59.469zm-13.156 11.031c-5.1861 5.1779-9.6694 11.088-13 17.906l21.344 42.375-8.3438-60.281zm-14.47 21.19c-6.3363 15.198-7.1472 34.652 1.7188 60.031 0.88837 2.543 6.9986 7.6488 9.1875 9.2188 3.1824 2.2826 6.2471 4.3773 9.2188 6.25-12.98-25.159-19.968-50.341-20.125-75.5z"/>
      <path id="path3808" d="m128.06 678.95c13.894-8.6422 28.508-23.754 40.637-16.511 106.6-120.48 253.85-214.74 404.06-307.08-154.53 86.13-337.04 204.7-444.7 323.59z" fill="#358f22"/>
      <path id="path3810" d="m467.27 420.02c-109.36 66.138-228.6 150.27-318.5 241.51 13.718-10.82 20.108-3.8156 23.469-5.0714 84.956-93.818 188.99-167.8 294.81-236.25 1.3956-0.89872 2.3606-1.4787 0.21875-0.1875z" fill="#20d986"/>
      <path id="path3812" fill="#66d46f" d="m631.66 337.97-31.625 1.2188 31.5 6.5625c0.50491-2.5928 0.56519-5.1761 0.125-7.7812zm-1.8125 13.375-45.969 5.0312 37.719 8.1875c3.5447-4.5084 6.4429-8.886 8.25-13.219zm-9.875 15.281-54.281 0.84375 40.219 14.625c5.1259-5.3957 9.9897-10.521 14.062-15.469zm-57.312 11.969 26.438 19.844c4.7628-4.1984 9.48-8.6809 14.156-13.531l-40.594-6.3125zm-16.17 3.03 29.28 27.29-40.4-19.22l27.844 28.781c8.4382-5.8233 16.549-11.938 24.469-18.812l-41.19-18.04zm-24.25 16.156 27.125 29.844c4.3803-2.7795 8.6532-5.567 12.844-8.4375l-39.97-21.4zm-18.188 13.125 32.844 24.438c3.5354-2.1473 7.0077-4.2696 10.406-6.4062l-43.25-18.031zm-21.219 10.125 37.375 24.344c4.6404-2.7696 9.2605-5.5348 13.656-8.1875l-51.031-16.156z"/>
    </g>
    <g id="g3778" transform="matrix(.89745 -.44112 .44112 .89745 348.09 136.75)">
      <path id="path3780" fill="#298d6a" d="m222.96 606.27c-2.1889-1.57-8.3081-6.6989-9.1964-9.2419-15.632-44.747-1.1675-71.092 20.588-88.123 134.07-104.96 258.12-161.23 347.49-185.55 19.731-5.3688 40.026-6.4351 47.477 7.7643 8.9983 17.147-6.2892 32.967-24.856 52.507-62.687 65.97-129.39 63.241-286.27 220.23-22.051 22.068-45.219 38.284-95.234 2.4107z"/>
      <path id="path3782" fill="#b436b2" d="m250.78 496.25c-3.2226 2.4433-6.4524 4.9378-9.6875 7.4375l16.5 52.25-6.8125-59.688zm-11.094 8.5312c-1.7771 1.3769-3.563 2.731-5.3438 4.125-2.2952 1.7968-4.4876 3.7039-6.5938 5.7188l17.812 49.625-5.875-59.469zm-13.156 11.031c-5.1861 5.1779-9.6694 11.088-13 17.906l21.344 42.375-8.3438-60.281zm-14.47 21.19c-6.3363 15.198-7.1472 34.652 1.7188 60.031 0.88837 2.543 6.9986 7.6488 9.1875 9.2188 3.1824 2.2826 6.2471 4.3773 9.2188 6.25-12.98-25.159-19.968-50.341-20.125-75.5z"/>
      <path id="path3784" d="m128.06 678.95c13.894-8.6422 28.508-23.754 40.637-16.511 106.6-120.48 253.85-214.74 404.06-307.08-154.53 86.13-337.04 204.7-444.7 323.59z" fill="#c03a58"/>
      <path id="path3786" d="m467.27 420.02c-109.36 66.138-228.6 150.27-318.5 241.51 13.718-10.82 20.108-3.8156 23.469-5.0714 84.956-93.818 188.99-167.8 294.81-236.25 1.3956-0.89872 2.3606-1.4787 0.21875-0.1875z" fill="#68cf40"/>
      <path id="path3788" fill="#47b831" d="m631.66 337.97-31.625 1.2188 31.5 6.5625c0.50491-2.5928 0.56519-5.1761 0.125-7.7812zm-1.8125 13.375-45.969 5.0312 37.719 8.1875c3.5447-4.5084 6.4429-8.886 8.25-13.219zm-9.875 15.281-54.281 0.84375 40.219 14.625c5.1259-5.3957 9.9897-10.521 14.062-15.469zm-57.312 11.969 26.438 19.844c4.7628-4.1984 9.48-8.6809 14.156-13.531l-40.594-6.3125zm-16.17 3.03 29.28 27.29-40.4-19.22l27.844 28.781c8.4382-5.8233 16.549-11.938 24.469-18.812l-41.19-18.04zm-24.25 16.156 27.125 29.844c4.3803-2.7795 8.6532-5.567 12.844-8.4375l-39.97-21.4zm-18.188 13.125 32.844 24.438c3.5354-2.1473 7.0077-4.2696 10.406-6.4062l-43.25-18.031zm-21.219 10.125 37.375 24.344c4.6404-2.7696 9.2605-5.5348 13.656-8.1875l-51.031-16.156z"/>
    </g>
  </g>
  <g id="layer2" transform="translate(-154.49 -308.75)">
    <g id="g3037" transform="translate(-49.996 -49.992)">
      <path id="path3815" d="m455.71 396.65c0 67.063-51.487 121.43-115 121.43s-115-54.365-115-121.43c0-67.063 51.487-121.43 115-121.43s115 54.365 115 121.43z" transform="matrix(1 0 0 .94706 31.333 150.53)" stroke="#00d400" stroke-width="5.1379" fill="#afa"/>
      <path id="path3817" d="m455.71 396.65c0 67.063-51.487 121.43-115 121.43s-115-54.365-115-121.43c0-67.063 51.487-121.43 115-121.43s115 54.365 115 121.43z" fill="url(#radialGradient3043)" transform="matrix(1 0 0 .94706 31.333 150.53)"/>
      <path id="path3827" d="m455.71 396.65c0 67.063-51.487 121.43-115 121.43s-115-54.365-115-121.43c0-67.063 51.487-121.43 115-121.43s115 54.365 115 121.43z" fill="url(#linearGradient3045)" transform="matrix(1 0 0 .94706 31.333 150.53)"/>
      <path id="path3839" opacity=".75" d="m455.71 396.65c0 67.063-51.487 121.43-115 121.43s-115-54.365-115-121.43c0-67.063 51.487-121.43 115-121.43s115 54.365 115 121.43z" fill="url(#linearGradient3047)" transform="matrix(.81366 0 0 .57059 94.82 252.72)"/>
    </g>
  </g>
  <metadata>
    <rdf:RDF>
      <cc:Work>
        <dc:format>image/svg+xml</dc:format>
        <dc:type rdf:resource="http://purl.org/dc/dcmitype/StillImage"/>
        <cc:license rdf:resource="http://creativecommons.org/licenses/publicdomain/"/>
        <dc:publisher>
          <cc:Agent rdf:about="http://openclipart.org/">
            <dc:title>Openclipart</dc:title>
          </cc:Agent>
        </dc:publisher>
        <dc:title>green ball</dc:title>
        <dc:date>2011-01-02T09:20:51</dc:date>
        <dc:description>ball sphere round circle green, clip art, clipart, </dc:description>
        <dc:source>http://openclipart.org/detail/103027/green-ball-by-alexgill</dc:source>
        <dc:creator>
          <cc:Agent>
            <dc:title>alexgill</dc:title>
          </cc:Agent>
        </dc:creator>
        <dc:subject>
          <rdf:Bag>
            <rdf:li>ball sphere round circle green</rdf:li>
            <rdf:li>clip art</rdf:li>
            <rdf:li>clipart</rdf:li>
          </rdf:Bag>
        </dc:subject>
      </cc:Work>
      <cc:License rdf:about="http://creativecommons.org/licenses/publicdomain/">
        <cc:permits rdf:resource="http://creativecommons.org/ns#Reproduction"/>
        <cc:permits rdf:resource="http://creativecommons.org/ns#Distribution"/>
        <cc:permits rdf:resource="http://creativecommons.org/ns#DerivativeWorks"/>
      </cc:License>
    </rdf:RDF>
  </metadata>
</svg>
